<svg id="Layer_1" xmlns="http://www.w3.org/2000/svg" viewBox="0 0 39.9 33"><path fill="#ffffff" d="M27.8 4.7c.5 0 .9.2 1.3.5l8.3 8.3c.7.7.7 1.8 0 2.5L22.9 30.5c-.3.3-.8.5-1.3.5s-.9-.2-1.3-.5L12 22.2c-.7-.7-.7-1.8 0-2.5L26.6 5.2c.3-.3.8-.5 1.2-.5m0-2c-1 0-1.9.4-2.7 1.1L10.7 18.3c-1.5 1.5-1.5 3.9 0 5.3l8.3 8.3c.7.7 1.7 1.1 2.7 1.1s1.9-.4 2.7-1.1l14.5-14.5c1.5-1.5 1.5-3.9 0-5.3l-8.3-8.3c-.8-.7-1.8-1.1-2.8-1.1z"/><path fill="#ffffff" class="st0" d="M18 18.9l-1-1 2.2-2.2c1-1 2.5-1 3.4-.1.8.8.8 2.1.2 3l-.9-.9c-.4-.4-1.1-.4-1.5 0l-1.2 1.2c-.3.3-.9.3-1.2 0zm1.8 2.8l2.4-2.4-1-1c-.3-.3-.9-.3-1.2 0l-1.2 1.2c-.4.4-1.1.4-1.5 0l-.9-.9c-.9 1-.9 2.4 0 3.3.9.8 2.4.7 3.4-.2z"/><path fill="#ffffff" class="st1" d="M21.2 27.2l12.6-12.6"/><path fill="#ffffff" d="M4.7 24.5l4.8 4.8c1.3 1.3 3.5 1.4 4.9.3l-7.5-7.3-2.2 2.2zM20.9 1.1c-1.5-1.5-3.9-1.5-5.3 0L1.1 15.6c-1.5 1.5-1.5 3.9 0 5.3l.8.8L21.7 1.9l-.8-.8z"/></svg>