<svg id="Layer_1" xmlns="http://www.w3.org/2000/svg" viewBox="0 0 28 36"><style>.st0{fill:#FFFFFF;}</style><path fill="#ffffff" d="M16.2 8h-4.5C5.3 8 0 13.3 0 19.8v12C0 34.1 1.9 36 4.2 36h19.5c2.3 0 4.2-1.9 4.2-4.2v-12C28 13.3 22.7 8 16.2 8zM8.7 0c-.7 0-1 .5-.6 1l2.4 4.2c.3.5 1.1.8 1.8.8h3.8c.7 0 1.5-.2 1.9-.7L20.4.9c.3-.5 0-.9-.7-.9h-11z"/><path fill="#00486d" d="M19.1 28.1l-2.8-4.3c1.6-.6 2.5-2.1 2.5-4 0-2.6-1.8-4.4-4.6-4.4h-3.7c-1 0-1.3.9-1.3 1.5v11.5c0 .5.4.9.9.9h.9c.5 0 .9-.4.9-.9v-4.2h1.6l2.8 4.4c.1.2.5.7 1.1.7h1c.3 0 .6-.2.7-.4.1-.3.1-.6 0-.8zm-7.2-10.2h2c2.3 0 2.3 1.4 2.3 1.9 0 1.3-.7 2-2.2 2h-2v-3.9z"/></svg>