<?xml version="1.0" encoding="utf-8"?>
<!-- Generator: Adobe Illustrator 21.0.2, SVG Export Plug-In . SVG Version: 6.00 Build 0)  -->
<svg version="1.1" id="Layer_1" xmlns="http://www.w3.org/2000/svg" xmlns:xlink="http://www.w3.org/1999/xlink" x="0px" y="0px"
	 viewBox="0 0 30 36" style="enable-background:new 0 0 30 36;" xml:space="preserve">
<style type="text/css">
	.st0{fill:#626769;}
</style>
<path class="st0" d="M26.9,0H3.1C1.4,0,0,1.4,0,3.1v29.8C0,34.6,1.4,36,3.1,36h23.8c1.7,0,3.1-1.4,3.1-3.1V3.1C30,1.4,28.6,0,26.9,0
	z M2,3.1C2,2.5,2.5,2,3.1,2H17v15H2V3.1z M28,32.9c0,0.6-0.5,1.1-1.1,1.1H3.1C2.5,34,2,33.5,2,32.9V19h26V32.9z M28,17h-9V2h7.9
	C27.5,2,28,2.5,28,3.1V17z M25,4.5v2.1C25,6.8,24.8,7,24.5,7h-2.1C22.2,7,22,6.8,22,6.5V4.5C22,4.2,22.2,4,22.5,4h2.1
	C24.8,4,25,4.2,25,4.5z M25,8.5v2c0,0.3-0.2,0.5-0.5,0.5h-2c-0.3,0-0.5-0.2-0.5-0.5v-2C22,8.2,22.2,8,22.5,8h2C24.8,8,25,8.2,25,8.5
	z M25,12.5v2c0,0.3-0.2,0.5-0.5,0.5h-2c-0.3,0-0.5-0.2-0.5-0.5v-2c0-0.3,0.2-0.5,0.5-0.5h2C24.8,12,25,12.2,25,12.5z M16.2,30.6
	v-6.2c0-0.1,0.1-0.3,0.3-0.3h1c0.1,0,0.3,0.1,0.3,0.3l0,0.6c0.5-0.6,1.1-0.9,1.9-0.9c0.9,0,1.5,0.4,1.9,1h0c0.5-0.6,1.2-1,2.1-1
	c1.3,0,2.4,0.7,2.4,2.4v4.2c0,0.1-0.1,0.3-0.3,0.3h-1.1c-0.1,0-0.3-0.1-0.3-0.3v-3.9c0-0.7-0.6-1.3-1.3-1.3c-0.9,0-1.2,0.7-1.2,1.6
	v3.6c0,0.1-0.1,0.3-0.3,0.3h-1.1c-0.1,0-0.3-0.1-0.3-0.3v-3.6c0-0.9-0.2-1.6-1.2-1.6c-0.6,0-1.3,0.4-1.3,1.5v3.7
	c0,0.1-0.1,0.3-0.3,0.3h-1.1C16.4,30.8,16.2,30.7,16.2,30.6z M4,29.1C4,29.1,4,29.1,4,29.1c0.1,1.1,1,1.9,2.4,1.9h0.2
	c0.8,0,1.4-0.1,1.9-0.3c1.2-0.5,1.4-1.3,1.4-1.6c0-0.6,0-2.8,0-3.1c0-0.1,0-0.1,0-0.2c-0.1-1.5-1.4-2-2.9-2c-1.3,0-2.7,0.5-2.7,2
	c0,0.1,0.1,0.2,0.2,0.2h1c0.1,0,0.2-0.1,0.2-0.2c0-0.4,0.5-0.7,1.2-0.7c0.8,0,1.3,0.3,1.3,1v0.6H6.1C5,26.7,4,27.6,4,28.8
	c0,0,0,0,0,0.1c0,0,0,0,0,0c0,0,0,0,0,0.1C4,29,4,29,4,29.1z M6.7,27.9h1.6v0.3c0,0.7-0.2,1.4-1.5,1.4c-0.8,0-1.2-0.3-1.2-0.9
	C5.6,28.1,6,27.9,6.7,27.9z M10.9,25.1v-0.8c0-0.1,0.1-0.3,0.3-0.3h0.6v-1.8c0-0.1,0.1-0.3,0.3-0.3h1.1c0.1,0,0.3,0.1,0.3,0.3v1.8
	h1.2c0.1,0,0.3,0.1,0.3,0.3v0.8c0,0.1-0.1,0.3-0.3,0.3h-1.2v3.5c0,0.5,0.3,0.6,0.6,0.6c0.2,0,0.4,0,0.5,0c0.2,0,0.3,0.1,0.3,0.3v0.9
	c0,0.1-0.1,0.2-0.2,0.3c-0.3,0.1-0.8,0.1-1,0.1c-1,0-1.9-0.5-1.9-1.7v-3.9h-0.6C11,25.4,10.9,25.3,10.9,25.1z"/>
</svg>
