<svg id="Layer_1" xmlns="http://www.w3.org/2000/svg" viewBox="0 0 859.9 141.2"><style>.st0{fill:#363330;} .st1{fill:#E73934;} .st2{fill:#00476E;}</style><path class="st0" d="M590.5 21.2h19.1v66.2h-19.1V21.2zm31.3.1v5.8h25.5v60.4h18.8V27.1h25.5v-5.8h-69.8zM495.9 87.5l-42.4-68-40.8 68h9.8l26.4-44.8L459.8 61h-17.2c-1 0-1.9.5-2.4 1.3l-2.5 4.5h25.6l12.3 20.7h20.3zm208 0h57.5v-5.8h-38.5V55.1h36v-5.8h-36V27.1h38.5v-5.8h-57.5v66.2zm-153-66.2H507.3v66.2h19V27.1H542c8.6 0 15.7 6.3 15.7 14s-7.1 14-15.7 14h-9.9c-1.6 0-2.9 1.3-2.9 2.9v2.9h21.9c15 0 25.8-9.3 25.8-20.1-.2-10.7-11-19.5-26-19.5zM410.4 71l-6.2-2.5c-2.8 3.9-6.9 7.1-11.7 9.6-3.2 1.7-6.7 2.9-10.3 3.6-2.8.6-5.6.9-8.4.9-1.8 0-3.5-.1-5.1-.4-16.2-1.6-25.9-11.2-25.9-27.4 0-18.5 12.3-29.4 31.5-29.4 9 0 17.2 2.3 23.8 8.6 0 0 1.2 1.3 3 1.9.9.3 1.9.4 3.1 0 1-.3 2.1-1 3.2-2.1 0 0-.4-.5-1-1l-1.3-1.3-.8-.7c-9.4-8.3-21.4-10.6-33.7-10.6-26.6 0-48.1 14.2-48.1 34.2 0 20.9 21.4 34.3 47.3 34.3 15.1 0 31.1-4.1 40.6-17.7zm443.3-2.5c-2.8 3.9-6.9 7.1-11.7 9.6-3.2 1.7-6.7 2.9-10.3 3.6-2.8.6-5.6.9-8.4.9-1.8 0-3.5-.1-5.1-.4-16.2-1.6-25.8-11.2-25.8-27.5 0-18.5 12.3-29.4 31.5-29.4 9 0 17.2 2.3 23.8 8.6 0 0 1.2 1.3 3 1.9.9.3 1.9.4 3.1 0 1-.3 2.1-1 3.2-2.1 0 0-.4-.5-1-1l-1.3-1.3-.8-.7c-9.4-8.3-21.4-10.6-33.7-10.6-26.6 0-48.1 14.2-48.1 34.2 0 20.9 21.4 34.3 47.3 34.3 15.1 0 31.1-4.1 40.5-17.6l-6.2-2.5zm-460.8 40.3l20.7 32.1H404l-5-8.4h-16.7l-5 8.4H373l19.9-32.1zm4.7 21.7l-7-11.5-7 11.5h14zm55-1l-23.4-20h-9.9v31.4h4.3v-24.4l28.3 24.4h5v-31.4h-4.3v20zm47-20H494l-17.9 15.7s8.4 9.5 11.6 12.8c2.6 2.6 5.2 2.9 8.5 2.9h4.8l-16.6-18 15.2-13.4zm-32.9 31.4h9v-31.4h-9v31.4zm-96.4-9.1c0 5.1-5.3 9.1-12.5 9.1h-23.1v-31.4h22.4c6.1 0 10.6 3 10.6 7.4 0 2.7-1.9 5.2-4.9 6.7 4.4 1.4 7.5 4.5 7.5 8.2zm-26.6-9.1h9.9c3.7 0 6.4-2.7 6.4-5.8 0-3.1-2.6-5.3-6.4-5.3h-9.9v11.1zm17.5 9.1c0-3.4-2.6-6.3-6.4-6.7h-11.1v13.4h10c4.4-.1 7.5-3.1 7.5-6.7z"/><path class="st1" d="M195.8 0H98.1v41c0 14.6 12 26.5 26.6 26.5h51.1c18.3 0 33.3 15 33.3 33.3v38.7c35.5-5.9 62.6-34.7 62.6-69.2 0-38.7-34.1-70.3-75.9-70.3"/><path class="st2" d="M155.4 73.3h-50.9c-18.3 0-33.3-14.7-33.3-33V.7C31.6 2.9 0 33.6 0 70.9c0 38.7 34.1 70.3 75.9 70.3H182V99.9c0-14.7-12-26.6-26.6-26.6"/></svg>