<svg id="Layer_1" xmlns="http://www.w3.org/2000/svg" viewBox="0 0 271.9 256"><style>.st0{fill:#fff;}</style><path class="st0" d="M0 177.3h5.3l3.9 14.6h.1l4.1-14.6h4.3l4.1 14.5h.2l3.9-14.5h5.2l-6.6 21.1h-4.8l-4.1-14.5h-.1l-4 14.5H6.7L0 177.3zM32.6 192.4c0-4.1 3.7-6.5 7.8-6.5H46V184c0-2.2-1.5-3.2-4-3.2-2.2 0-3.8.7-3.8 2.1v.7h-4.5v-.6c0-4.6 4.4-6.2 8.3-6.2 4.7 0 9 1.6 9 6.7v10.2c0 .9.1 4.1.4 4.5h-5c-.1-.3-.2-1.6-.2-1.9H46c-1.8 1.9-3.4 2.3-6.2 2.3-4.3.1-7.2-2.2-7.2-6.2zm13.3-1.8v-1H41c-2.1 0-3.5.7-3.5 2.6 0 1.8 1.4 2.7 3.8 2.7 3.9-.1 4.6-2.1 4.6-4.3zM55.5 206.1v-4.2c.9.1 1.7.2 2.4.2 1.3 0 2.1-.8 2.4-1.8l.9-2.5-7.8-20.5h5.5l4.9 14.4h.1l4.7-14.4h5.1l-8.9 24.5c-1.2 3.3-3.6 4.6-6.9 4.6-.4 0-1.5-.1-2.4-.3zM84.8 193.4v-12.1H82v-4h2.8V171h5v6.4h4.6v4h-4.6v10.9c0 1.6.8 2 2 2 1 0 1.6 0 2.6-.2v4.3c-1.1.3-3 .4-3.7.4-3.3-.1-5.9-1.7-5.9-5.4zM96.9 190.6v-4.8c0-5.7 4.8-8.8 9.5-8.8 5.1 0 9.6 3.4 9.6 8.7v4.3c0 5.7-4.8 8.8-9.5 8.8-5 0-9.6-2.8-9.6-8.2zm14.1-.1v-5.2c0-2.5-2-4-4.6-4-2.1 0-4.4 1.1-4.4 4.1v5.2c0 2.5 2 4.1 4.6 4.1 2.1-.1 4.4-1.2 4.4-4.2zM136.1 196.2h-.1v2.1h-4.8v-29.2h5v10.7c1.6-2.1 3.9-2.8 5.8-2.8 4.6 0 8.3 2.9 8.3 8.3v5.1c0 5.7-4.2 8.5-8.9 8.5-2.3-.1-4.3-1.3-5.3-2.7zm9.1-5.7v-5.2c0-2.5-2-4-4.6-4-2.1 0-4.5 1.4-4.5 4.5v4.8c0 2.5 2.1 4.1 4.6 4.1 2.2-.1 4.5-1.2 4.5-4.2zM153.5 192.4c0-4.1 3.7-6.5 7.8-6.5h5.6V184c0-2.2-1.5-3.2-4-3.2-2.2 0-3.8.7-3.8 2.1v.7h-4.5v-.6c0-4.6 4.4-6.2 8.3-6.2 4.7 0 9 1.6 9 6.7v10.2c0 .9.1 4.1.4 4.5h-5c-.1-.3-.2-1.6-.2-1.9h-.1c-1.8 1.9-3.4 2.3-6.2 2.3-4.3.1-7.3-2.2-7.3-6.2zm13.4-1.8v-1H162c-2.1 0-3.5.7-3.5 2.6 0 1.8 1.4 2.7 3.8 2.7 3.9-.1 4.6-2.1 4.6-4.3zM177.3 177.3h4.9v2.6h.1c1.4-2 3.6-3 5.9-3 4.7 0 7.3 3 7.3 8v13.5h-5v-12.2c0-3.2-1.4-4.8-3.9-4.8-2.7 0-4.3 1.7-4.3 5.2v11.8h-5v-21.1zM201 169.1h5V186l7.7-8.7h5.9l-7.5 7.9 7.8 13.1h-5.6l-5.6-9.6-2.7 3v6.6h-5v-29.2z"/><g><path class="st0" d="M233.9 216.6c0 9-7 16.4-16 16.4H40.7c-9 0-15.8-7.4-15.8-16.4V208H.9v8.6c0 21.8 17.8 39.4 39.6 39.4h177.2c21.8 0 39.2-17.6 39.2-39.4V178h-23v38.6zM24.9 152.9c4 4.9 10.4 7.9 17.1 7.9 15.7 0 28.9-10.1 28.9-26.8v-21.8c0-16.7-10.4-26.7-26.5-26.7-6.8 0-14.5 3-19.5 9.8V39.4c0-9 6.9-16.4 15.8-16.4h177.2c9 0 16 7.4 16 16.4V48h23v-8.6c0-21.8-17.5-39.4-39.2-39.4H40.5C18.7 0 .9 17.6.9 39.4V161h24v-8.1zm0-40.6c1-6.9 6.6-9.3 11.5-9.3 6.4 0 11.5 4 11.5 11.5v17.7c0 8.3-5.3 11.9-11.2 11.9-5.2 0-10.8-2.6-11.8-8.5v-23.3z"/><path class="st0" d="M144.9 129v-14.2c0-19.6-15.5-29.3-31.9-29.3-17.8 0-35.1 10.4-35.1 32.3v13.3c0 20.9 17.3 29.7 35.3 29.7 11.8 0 22.8-3.7 30.2-11.2l-8.6-12.7c-3.6 3.1-12.5 6.6-18.8 6.6-7.4 0-15.2-3.7-15.2-11.8V129h44.1zm-44-15.5c0-7.8 5.7-11.4 11.7-11.4s11.3 3.4 11.3 10.9v2.9h-23v-2.4zM185.7 144.6c-7.8 0-15.6-3.7-20.7-8.6l-11.8 13.5c9.6 8.9 20.5 11.1 33.5 11.1 15.2 0 33.1-7.7 33.1-25.2 0-10.3-7-17.8-19.8-20.5l-12.5-2.6c-4.9-1-10.1-1.6-10.1-5.5 0-4 3.6-5.7 9.6-5.7 5.6 0 11.9 2.1 16.6 6.3l12.9-12.5c-8.1-6.8-16-9.6-29.8-9.6-17.8 0-30.2 10.4-30.2 24.6 0 10.8 7.1 16.6 18.6 19.3 7.3 2.1 12.3 2.7 12.7 2.9 5.7 1.1 9 2.2 9 6.4 0 4.7-5.9 6.1-11.1 6.1zM271.9 104V88h-15V68h-23v20h-8v16h8v36.6c0 14.9 10.9 19.7 21.9 19.7 4.4 0 11.1-.8 16.1-2.3v-17.7c-3 .5-5.5.7-8.8.7-4.4 0-6.2-2.2-6.2-6.2V104h15z"/></g></svg>